<svg xmlns="http://www.w3.org/2000/svg" viewBox="0 0 512 512" role="img" aria-label="STM32 学习">
  <rect width="512" height="512" rx="96" fill="#164e63"/>
  <rect x="116" y="116" width="280" height="280" rx="36" fill="#f8fafc"/>
  <rect x="164" y="164" width="184" height="184" rx="20" fill="#0f766e"/>
  <path d="M88 164h48M88 224h48M88 288h48M88 348h48M376 164h48M376 224h48M376 288h48M376 348h48M164 88v48M224 88v48M288 88v48M348 88v48M164 376v48M224 376v48M288 376v48M348 376v48" stroke="#f8fafc" stroke-width="22" stroke-linecap="round"/>
  <text x="256" y="278" text-anchor="middle" font-family="Arial, sans-serif" font-size="72" font-weight="700" fill="#f8fafc">STM</text>
</svg>
